<svg width="20" height="20" viewBox="0 0 20 20" fill="none" xmlns="http://www.w3.org/2000/svg">
<rect x="2.33325" y="2.33334" width="15.3333" height="15.3333" rx="7.66667" fill="#B1B1B1" stroke="#B1B1B1" stroke-width="2"/>
<mask id="path-2-inside-1_125_471" fill="white">
<path d="M13.4706 6.73661L8.655 11.642L6.89721 9.83279C6.80565 9.75818 6.65917 9.75818 6.58593 9.83279L6.05493 10.3737C5.98169 10.4483 5.98169 10.5975 6.05493 10.6908L8.50851 13.1714C8.60007 13.2647 8.72824 13.2647 8.81979 13.1714L14.3129 7.57593C14.3861 7.50133 14.3861 7.35211 14.3129 7.25885L13.7819 6.73661C13.7086 6.64335 13.5622 6.64335 13.4706 6.73661Z"/>
</mask>
<path d="M13.4706 6.73661L14.8978 8.1377L13.4706 6.73661ZM8.655 11.642L7.22054 13.0357L8.64758 14.5045L10.0822 13.0431L8.655 11.642ZM6.89721 9.83279L8.33166 8.4391L8.2507 8.35578L8.16064 8.28239L6.89721 9.83279ZM6.58593 9.83279L8.01314 11.2339V11.2339L6.58593 9.83279ZM6.05493 10.3737L4.62772 8.97259H4.62772L6.05493 10.3737ZM6.05493 10.6908L4.48202 11.9261L4.55261 12.0159L4.63297 12.0972L6.05493 10.6908ZM8.50851 13.1714L9.93574 11.7703L9.93047 11.765L8.50851 13.1714ZM8.81979 13.1714L10.247 14.5725L8.81979 13.1714ZM14.3129 7.57593L12.8857 6.17484L14.3129 7.57593ZM14.3129 7.25885L15.8858 6.02356L15.8067 5.92279L15.7153 5.83294L14.3129 7.25885ZM13.7819 6.73661L12.209 7.97191L12.2881 8.07268L12.3795 8.16252L13.7819 6.73661ZM12.0434 5.33551L7.22778 10.2409L10.0822 13.0431L14.8978 8.1377L12.0434 5.33551ZM10.0894 10.2483L8.33166 8.4391L5.46275 11.2265L7.22054 13.0357L10.0894 10.2483ZM8.16064 8.28239C7.72016 7.92343 7.20094 7.77683 6.7347 7.77683C6.28167 7.77683 5.65989 7.92117 5.15872 8.43169L8.01314 11.2339C7.58521 11.6698 7.07329 11.7768 6.7347 11.7768C6.38291 11.7768 5.9827 11.6675 5.63377 11.3832L8.16064 8.28239ZM5.15872 8.43169L4.62772 8.97259L7.48214 11.7748L8.01314 11.2339L5.15872 8.43169ZM4.62772 8.97259C4.13148 9.47808 4 10.0917 4 10.5252C4 10.9744 4.1354 11.4847 4.48202 11.9261L7.62784 9.45546C7.90122 9.80356 8 10.1926 8 10.5252C8 10.8422 7.90514 11.3439 7.48214 11.7748L4.62772 8.97259ZM4.63297 12.0972L7.08656 14.5779L9.93047 11.765L7.47689 9.28433L4.63297 12.0972ZM7.0813 14.5725C7.46251 14.9608 8.01701 15.2414 8.66415 15.2414C9.31129 15.2414 9.8658 14.9608 10.247 14.5725L7.39258 11.7703C7.68223 11.4753 8.12687 11.2414 8.66415 11.2414C9.20143 11.2414 9.64607 11.4753 9.93573 11.7703L7.0813 14.5725ZM10.247 14.5725L15.7401 8.97703L12.8857 6.17484L7.39258 11.7703L10.247 14.5725ZM15.7401 8.97703C16.2363 8.47154 16.3678 7.85791 16.3678 7.42439C16.3678 6.97521 16.2324 6.46491 15.8858 6.02356L12.74 8.49415C12.4666 8.14605 12.3678 7.75699 12.3678 7.42439C12.3678 7.10744 12.4627 6.60572 12.8857 6.17484L15.7401 8.97703ZM15.7153 5.83294L15.1843 5.31069L12.3795 8.16252L12.9105 8.68477L15.7153 5.83294ZM15.3548 5.50131C14.4019 4.28804 12.8203 4.54413 12.0434 5.33551L14.8978 8.1377C14.304 8.74257 13.0153 8.99866 12.209 7.97191L15.3548 5.50131Z" fill="white" mask="url(#path-2-inside-1_125_471)"/>
</svg>
