<svg width="332" height="464" viewBox="0 0 332 464" fill="none" xmlns="http://www.w3.org/2000/svg">
<g filter="url(#filter0_bi_265_248)">
<path d="M144 32C144 25.3726 138.627 20 132 20H12C5.37259 20 0 25.3726 0 32V125.162C0 133.94 9.11697 139.748 17.0726 136.037L41.8961 124.458C43.4846 123.717 45.216 123.333 46.9687 123.333H132C138.627 123.333 144 117.961 144 111.333V32Z" fill="#1D1D1D" fill-opacity="0.05"/>
<path d="M144 32C144 25.3726 138.627 20 132 20H12C5.37259 20 0 25.3726 0 32V125.162C0 133.94 9.11697 139.748 17.0726 136.037L41.8961 124.458C43.4846 123.717 45.216 123.333 46.9687 123.333H132C138.627 123.333 144 117.961 144 111.333V32Z" fill="url(#paint0_linear_265_248)" fill-opacity="0.3"/>
<path d="M143.5 32C143.5 25.6487 138.351 20.5 132 20.5H12C5.64873 20.5 0.5 25.6487 0.5 32V125.162C0.5 133.574 9.23711 139.14 16.8612 135.584L41.6848 124.005C43.3394 123.233 45.143 122.833 46.9687 122.833H132C138.351 122.833 143.5 117.685 143.5 111.333V32Z" stroke="url(#paint1_linear_265_248)" stroke-opacity="0.6"/>
</g>
<path d="M40.12 57.58V47.54H41.76V57.58H40.12ZM37.2 57.18C35.12 56.48 33.52 55.04 32.7 53.2C31.92 55.2 30.3 56.78 28.14 57.52L27.3 56.24C30.02 55.34 31.84 53.04 31.84 50.54V50.06H27.74V48.74H37.58V50.06H33.52V50.54C33.52 52.92 35.38 55.02 38.02 55.88L37.2 57.18ZM42.08 65.24H29.74V63.92H32.38V59.92H29.9V58.6H41.88V59.92H39.42V63.92H42.08V65.24ZM37.8 63.92V59.92H34V63.92H37.8ZM58.5384 60.7V47.54H60.1784V60.7H58.5384ZM55.3984 57.78C53.3184 57 51.7784 55.42 50.9784 53.34C50.1984 55.52 48.5984 57.26 46.4984 58.14L45.6384 56.8C48.3584 55.78 50.1384 53.16 50.1384 50.36V48.54H51.7784V50.36C51.7784 53.06 53.6184 55.52 56.2584 56.48L55.3984 57.78ZM60.7184 65.08H48.6384V59.48H50.2784V63.74H60.7184V65.08ZM80.1369 63.22H63.8369V61.86H71.1369V57.26H65.9169V48.98H78.0769V50.32H67.5569V55.94H78.2569V57.26H72.7969V61.86H80.1369V63.22ZM101.028 53.6V58.34H99.388V47.56H101.028V52.22H103.288V53.6H101.028ZM97.768 57.48C96.388 56.76 95.528 55.48 95.028 54.04C94.648 55.48 93.948 56.86 92.588 57.66C91.228 56.84 90.548 55.46 90.168 54.02C89.668 55.46 88.808 56.76 87.428 57.5L86.568 56.3C88.588 55.18 89.408 52.84 89.408 51.14V50.22H87.188V48.88H92.208V50.22H90.948V51.14C90.948 52.44 91.288 54.44 92.608 55.82C93.908 54.48 94.228 52.54 94.228 51.14V50.22H92.988V48.88H97.968V50.22H95.788V51.14C95.788 52.9 96.608 55.24 98.628 56.3L97.768 57.48ZM101.028 59.16V65.5H99.388V60.48H89.008V59.16H101.028ZM119.806 65.52H118.166V47.54H119.806V65.52ZM110.346 48.92C113.006 48.92 114.906 51.36 114.906 55.18C114.906 59 113.006 61.44 110.346 61.44C107.686 61.44 105.786 59 105.786 55.18C105.786 51.36 107.686 48.92 110.346 48.92ZM110.346 50.4C108.586 50.4 107.346 52.28 107.346 55.18C107.346 58.1 108.586 59.98 110.346 59.98C112.086 59.98 113.326 58.1 113.326 55.18C113.326 52.28 112.086 50.4 110.346 50.4ZM40.14 81.8V71.56H41.78V81.8H40.14ZM32.14 80.96C29.44 80.96 27.48 79.26 27.48 76.78C27.48 74.3 29.44 72.6 32.14 72.6C34.86 72.6 36.84 74.3 36.84 76.78C36.84 79.26 34.86 80.96 32.14 80.96ZM32.14 73.96C30.36 73.96 29.08 75.12 29.08 76.78C29.08 78.44 30.36 79.6 32.14 79.6C33.92 79.6 35.24 78.44 35.24 76.78C35.24 75.12 33.92 73.96 32.14 73.96ZM39.78 83.54C39.78 85.4 41.08 87.26 43.38 88L42.56 89.24C40.8 88.6 39.58 87.38 38.96 85.86C38.4 87.32 37.32 88.68 35.64 89.4C33.88 88.7 32.84 87.44 32.3 85.92C31.66 87.36 30.44 88.6 28.76 89.24L27.94 88C30.2 87.2 31.54 85.28 31.54 83.54V82.58H33.12V83.54C33.12 85.14 33.92 86.82 35.6 87.8C37.32 86.72 38.18 84.94 38.18 83.54V82.58H39.78V83.54ZM59.2584 79.98V89.52H57.6184V71.54H59.2584V78.62H62.2184V79.98H59.2584ZM47.8584 83.64C51.0584 83.64 53.3584 83.52 55.9384 83.04L56.1184 84.4C53.3984 84.94 50.9984 85.04 47.6384 85.04H46.2184V73.26H54.5584V74.62H47.8584V83.64ZM76.9769 71.56H78.6369V84.64H76.9769V77.84H71.9369V76.52H76.9769V71.56ZM74.2769 81.42C71.7369 81.9 69.5769 82 66.2369 82H64.8769V73.02H73.0969V74.36H66.5169V80.66C69.6769 80.66 71.6969 80.56 74.0969 80.08L74.2769 81.42ZM79.0969 89.2H67.1369V83.68H68.7769V87.86H79.0969V89.2ZM97.4753 89.48H95.9153V71.54H97.4753V89.48ZM93.8553 71.98V88.58H92.3153V79.74H88.4553V78.38H92.3153V71.98H93.8553ZM84.5353 83.8C87.0353 83.8 88.7353 83.74 90.5553 83.3L90.7153 84.64C88.6953 85.06 86.9353 85.16 84.0753 85.16H82.9153V73.74H89.6553V75.06H84.5353V83.8ZM102.254 86.4V88.28H100.434V86.4H102.254ZM106.863 86.4V88.28H105.043V86.4H106.863Z" fill="#404040"/>
<g opacity="0.95">
<g opacity="0.9" filter="url(#filter1_bdi_265_248)">
<path d="M164 12C164 5.37259 169.373 0 176 0H316C322.627 0 328 5.37258 328 12V117.455C328 126.159 319.023 131.968 311.083 128.401L279.884 114.387C278.338 113.692 276.662 113.333 274.967 113.333H176C169.373 113.333 164 107.961 164 101.333V12Z" fill="#1D1D1D" fill-opacity="0.05" shape-rendering="crispEdges"/>
<path d="M164 12C164 5.37259 169.373 0 176 0H316C322.627 0 328 5.37258 328 12V117.455C328 126.159 319.023 131.968 311.083 128.401L279.884 114.387C278.338 113.692 276.662 113.333 274.967 113.333H176C169.373 113.333 164 107.961 164 101.333V12Z" fill="url(#paint2_linear_265_248)" fill-opacity="0.3" shape-rendering="crispEdges"/>
<path d="M164.5 12C164.5 5.64873 169.649 0.5 176 0.5H316C322.351 0.5 327.5 5.64873 327.5 12V117.455C327.5 125.796 318.897 131.363 311.288 127.945L280.089 113.931C278.478 113.207 276.733 112.833 274.967 112.833H176C169.649 112.833 164.5 107.685 164.5 101.333V12Z" stroke="url(#paint3_linear_265_248)" stroke-opacity="0.6" shape-rendering="crispEdges"/>
</g>
<path d="M210.86 30.98V40.52H209.22V22.54H210.86V29.62H213.82V30.98H210.86ZM199.46 34.64C202.66 34.64 204.96 34.52 207.54 34.04L207.72 35.4C205 35.94 202.6 36.04 199.24 36.04H197.82V24.26H206.16V25.62H199.46V34.64ZM217.618 28.58V23.14H229.578V24.46H219.258V27.26H229.758V28.58H217.618ZM231.698 31.36H215.458V30.02H231.698V31.36ZM230.138 38.98V40.26H217.458V35.92H227.978V34.2H217.398V32.92H229.598V37.14H219.058V38.98H230.138ZM205.64 54.98C204.78 56.04 203.5 56.68 201.96 56.68C199.32 56.68 197.34 54.82 197.34 52.18C197.34 49.54 199.32 47.68 201.96 47.68C203.5 47.68 204.76 48.32 205.62 49.36H210.18V46.56H211.84V59.8H210.18V54.98H205.64ZM198.9 52.18C198.9 53.96 200.2 55.24 201.96 55.24C203.7 55.24 205 53.96 205 52.18C205 50.4 203.7 49.12 201.96 49.12C200.2 49.12 198.9 50.4 198.9 52.18ZM206.32 50.68C206.48 51.14 206.56 51.64 206.56 52.18C206.56 52.7 206.48 53.2 206.32 53.66H210.18V50.68H206.32ZM212.34 64.08H200.36V58.44H202.02V62.74H212.34V64.08ZM230.698 64.48H229.138V54.98H226.718V63.6H225.178V46.94H226.718V53.64H229.138V46.54H230.698V64.48ZM219.498 48.04C221.838 48.04 223.338 50.46 223.338 54.28C223.338 58.12 221.838 60.54 219.498 60.54C217.178 60.54 215.678 58.12 215.678 54.28C215.678 50.46 217.178 48.04 219.498 48.04ZM219.498 59.02C220.938 59.02 221.818 57.26 221.818 54.28C221.818 51.38 220.938 49.56 219.498 49.56C218.058 49.56 217.178 51.38 217.178 54.28C217.178 57.26 218.058 59.02 219.498 59.02ZM247.677 55.3V64.48H246.037V46.56H247.677V53.92H250.617V55.3H247.677ZM244.337 49.42V50.74H233.757V49.42H238.277V46.76H239.917V49.42H244.337ZM239.117 52.22C241.677 52.22 243.497 53.96 243.497 56.36C243.497 58.82 241.677 60.48 239.117 60.48C236.597 60.48 234.777 58.82 234.777 56.36C234.777 53.96 236.597 52.22 239.117 52.22ZM239.117 59.12C240.777 59.12 241.937 57.96 241.937 56.36C241.937 54.76 240.777 53.58 239.117 53.58C237.497 53.58 236.317 54.76 236.317 56.36C236.317 57.96 237.497 59.12 239.117 59.12ZM254.435 53.28V47.2H256.075V51.94H266.635V53.28H254.435ZM268.495 57H252.235V55.68H268.495V57ZM266.735 62.7V64.04H254.315V58.8H255.955V62.7H266.735ZM285.874 64.48H284.314V46.54H285.874V64.48ZM282.254 46.98V63.58H280.714V54.74H276.854V53.38H280.714V46.98H282.254ZM272.934 58.8C275.434 58.8 277.134 58.74 278.954 58.3L279.114 59.64C277.094 60.06 275.334 60.16 272.474 60.16H271.314V48.74H278.054V50.06H272.934V58.8ZM212.14 88.46H210.58V79.34H208.42V87.52H206.88V70.94H208.42V78H210.58V70.54H212.14V88.46ZM202.22 82.78C203.58 82.72 204.86 82.64 206.06 82.48L206.2 83.66C203.28 84.18 199.46 84.28 197.06 84.28L196.84 82.9C197.96 82.9 199.24 82.9 200.68 82.84V79.82C198.68 79.52 197.38 78.1 197.38 76.04C197.38 73.8 199.08 72.24 201.44 72.24C203.82 72.24 205.54 73.8 205.54 76.04C205.54 78.06 204.2 79.56 202.22 79.82V82.78ZM198.88 76.04C198.88 77.56 199.92 78.54 201.44 78.54C202.96 78.54 204.04 77.56 204.04 76.04C204.04 74.58 202.94 73.58 201.44 73.58C199.92 73.58 198.88 74.58 198.88 76.04ZM233.731 79.06V88.48H232.091V70.54H233.731V77.7H236.611V79.06H233.731ZM222.271 82.56C224.851 82.56 227.511 82.34 230.411 81.76L230.611 83.12C227.551 83.74 224.811 83.94 222.071 83.94H220.651V72.28H222.271V82.56ZM254.91 77.38H252.25V83.66H250.61V70.52H252.25V76H254.91V77.38ZM239.07 80.44V72.14H247.31V80.44H239.07ZM240.67 73.46V79.14H245.71V73.46H240.67ZM253.05 86.74V88.08H241.09V82.44H242.73V86.74H253.05ZM258.328 85.4V87.28H256.508V85.4H258.328ZM262.937 85.4V87.28H261.117V85.4H262.937ZM267.547 85.4V87.28H265.727V85.4H267.547Z" fill="#404040"/>
</g>
<g opacity="0.9" filter="url(#filter2_bdi_265_248)">
<path d="M76 152C76 145.373 81.3726 140 88 140H240C246.627 140 252 145.373 252 152V239.958C252 246.585 246.627 251.958 240 251.958H203.211C199.797 251.958 196.545 253.412 194.269 255.956L176.327 276.006C171.557 281.337 163.212 281.337 158.442 276.006L140.501 255.956C138.224 253.412 134.972 251.958 131.558 251.958H88C81.3726 251.958 76 246.585 76 239.958V152Z" fill="#1D1D1D" fill-opacity="0.05" shape-rendering="crispEdges"/>
<path d="M76 152C76 145.373 81.3726 140 88 140H240C246.627 140 252 145.373 252 152V239.958C252 246.585 246.627 251.958 240 251.958H203.211C199.797 251.958 196.545 253.412 194.269 255.956L176.327 276.006C171.557 281.337 163.212 281.337 158.442 276.006L140.501 255.956C138.224 253.412 134.972 251.958 131.558 251.958H88C81.3726 251.958 76 246.585 76 239.958V152Z" fill="url(#paint4_linear_265_248)" fill-opacity="0.3" shape-rendering="crispEdges"/>
<path d="M76.5 152C76.5 145.649 81.6487 140.5 88 140.5H240C246.351 140.5 251.5 145.649 251.5 152V239.958C251.5 246.309 246.351 251.458 240 251.458H203.211C199.655 251.458 196.267 252.973 193.896 255.623L175.955 275.673C171.383 280.782 163.386 280.782 158.815 275.673L140.873 255.623C138.502 252.973 135.114 251.458 131.558 251.458H88C81.6487 251.458 76.5 246.309 76.5 239.958V152Z" stroke="url(#paint5_linear_265_248)" stroke-opacity="0.6" shape-rendering="crispEdges"/>
</g>
<path d="M149.966 180.48H148.406V162.54H149.966V180.48ZM146.306 162.94V179.6H144.766V170.34H141.806V168.98H144.766V162.94H146.306ZM140.046 167.6C140.046 170.48 141.406 173.52 143.746 174.96L142.806 176.24C141.106 175.2 139.906 173.3 139.266 171.12C138.626 173.54 137.326 175.52 135.546 176.64L134.526 175.4C136.986 173.96 138.466 170.76 138.466 167.66V164.24H140.046V167.6ZM169.704 168.54H167.044V173.42H165.404V162.56H167.044V167.18H169.704V168.54ZM162.624 172.26C160.684 171.54 159.144 170.06 158.344 168.22C157.604 170.32 156.004 171.96 153.904 172.76L153.044 171.46C155.764 170.5 157.504 168 157.504 165.3V163.46H159.144V165.44C159.144 167.84 160.924 170.12 163.484 170.98L162.624 172.26ZM161.344 173.92C164.964 173.92 167.244 175.12 167.244 177.2C167.244 179.28 164.964 180.46 161.344 180.46C157.684 180.46 155.424 179.28 155.424 177.2C155.424 175.12 157.684 173.92 161.344 173.92ZM161.344 179.18C164.004 179.18 165.604 178.48 165.604 177.2C165.604 175.92 164.004 175.2 161.344 175.2C158.684 175.2 157.064 175.92 157.064 177.2C157.064 178.48 158.684 179.18 161.344 179.18ZM186.763 180.48H185.203V162.54H186.763V180.48ZM183.203 162.94V179.6H181.643V170.86H179.383C179.223 174.38 177.783 176.54 175.583 176.54C173.243 176.54 171.743 174.14 171.743 170.26C171.743 166.42 173.243 164.04 175.583 164.04C177.743 164.04 179.163 166.14 179.383 169.52H181.643V162.94H183.203ZM175.583 175.02C177.023 175.02 177.903 173.24 177.903 170.26C177.903 167.38 176.963 165.56 175.583 165.56C174.143 165.56 173.243 167.38 173.243 170.26C173.243 173.24 174.143 175.02 175.583 175.02ZM127.823 190.06V188.74H132.283V186.56H133.923V188.74H138.403V190.06H127.823ZM144.343 193.84H141.683V200H140.043V186.56H141.683V192.46H144.343V193.84ZM137.403 194.38C137.403 196.4 135.663 197.72 133.103 197.72C130.563 197.72 128.823 196.4 128.823 194.38C128.823 192.38 130.563 191.06 133.103 191.06C135.663 191.06 137.403 192.38 137.403 194.38ZM130.383 194.38C130.383 195.66 131.423 196.44 133.103 196.44C134.723 196.44 135.843 195.66 135.843 194.38C135.843 193.1 134.723 192.34 133.103 192.34C131.423 192.34 130.383 193.1 130.383 194.38ZM142.483 202.74V204.08H130.523V198.94H132.163V202.74H142.483ZM146.982 195.86V187.9H155.162V189.46H159.282V186.56H160.942V197.16H159.282V194.32H155.162V195.86H146.982ZM148.602 189.22V194.56H153.562V189.22H148.602ZM155.162 193H159.282V190.78H155.162V193ZM155.002 197.7C158.702 197.7 160.982 198.92 160.982 201.08C160.982 203.22 158.702 204.46 155.002 204.46C151.322 204.46 149.042 203.22 149.042 201.08C149.042 198.92 151.322 197.7 155.002 197.7ZM155.002 203.18C157.742 203.18 159.362 202.44 159.362 201.08C159.362 199.72 157.742 198.98 155.002 198.98C152.262 198.98 150.682 199.72 150.682 201.08C150.682 202.44 152.262 203.18 155.002 203.18ZM165.1 192.62C167.2 191.92 168.4 190.2 168.4 188.94V188.52H165.62V187.18H172.3V188.52H170.04V188.94C170.04 190.06 171 191.64 172.66 192.5C174.32 191.7 175.28 190.12 175.28 188.94V188.52H173V187.18H179.72V188.52H176.9V188.94C176.9 190.36 178.1 191.98 180.24 192.62L179.52 193.84C177.82 193.28 176.64 192.2 176.08 190.84C175.54 192.2 174.44 193.38 172.68 193.96C170.92 193.34 169.8 192.08 169.26 190.78C168.68 192.06 167.52 193.26 165.82 193.84L165.1 192.62ZM180.84 196.46H164.56V195.12H180.84V196.46ZM178.8 198.28V204.24H166.56V198.28H178.8ZM177.2 202.92V199.58H168.16V202.92H177.2ZM191.058 194.3C187.218 194.3 184.758 192.98 184.758 190.74C184.758 188.5 187.218 187.16 191.058 187.16C194.898 187.16 197.358 188.5 197.358 190.74C197.358 192.98 194.898 194.3 191.058 194.3ZM191.058 188.48C188.238 188.48 186.438 189.3 186.438 190.74C186.438 192.18 188.238 192.98 191.058 192.98C193.878 192.98 195.678 192.18 195.678 190.74C195.678 189.3 193.878 188.48 191.058 188.48ZM199.158 197.3H182.938V195.98H199.158V197.3ZM197.378 202.74V204.08H185.038V198.88H186.678V202.74H197.378ZM115.395 228.46H113.815V219.2H111.275V227.56H109.735V210.94H111.275V217.84H113.815V210.54H115.395V228.46ZM102.695 222.4C104.455 222.38 106.295 222.26 108.455 221.84L108.615 223.26C106.195 223.72 104.135 223.82 102.195 223.82H101.055V212.72H102.695V222.4ZM137.346 216.6V221.34H135.706V210.56H137.346V215.22H139.606V216.6H137.346ZM134.086 220.48C132.706 219.76 131.846 218.48 131.346 217.04C130.966 218.48 130.266 219.86 128.906 220.66C127.546 219.84 126.866 218.46 126.486 217.02C125.986 218.46 125.126 219.76 123.746 220.5L122.886 219.3C124.906 218.18 125.726 215.84 125.726 214.14V213.22H123.506V211.88H128.526V213.22H127.266V214.14C127.266 215.44 127.606 217.44 128.926 218.82C130.226 217.48 130.546 215.54 130.546 214.14V213.22H129.306V211.88H134.286V213.22H132.106V214.14C132.106 215.9 132.926 218.24 134.946 219.3L134.086 220.48ZM137.346 222.16V228.5H135.706V223.48H125.326V222.16H137.346ZM156.125 228.52H154.485V210.54H156.125V228.52ZM146.665 211.92C149.325 211.92 151.225 214.36 151.225 218.18C151.225 222 149.325 224.44 146.665 224.44C144.005 224.44 142.105 222 142.105 218.18C142.105 214.36 144.005 211.92 146.665 211.92ZM146.665 213.4C144.905 213.4 143.665 215.28 143.665 218.18C143.665 221.1 144.905 222.98 146.665 222.98C148.405 222.98 149.645 221.1 149.645 218.18C149.645 215.28 148.405 213.4 146.665 213.4ZM177.396 220.8V210.56H179.036V220.8H177.396ZM169.396 219.96C166.696 219.96 164.736 218.26 164.736 215.78C164.736 213.3 166.696 211.6 169.396 211.6C172.116 211.6 174.096 213.3 174.096 215.78C174.096 218.26 172.116 219.96 169.396 219.96ZM169.396 212.96C167.616 212.96 166.336 214.12 166.336 215.78C166.336 217.44 167.616 218.6 169.396 218.6C171.176 218.6 172.496 217.44 172.496 215.78C172.496 214.12 171.176 212.96 169.396 212.96ZM177.036 222.54C177.036 224.4 178.336 226.26 180.636 227L179.816 228.24C178.056 227.6 176.836 226.38 176.216 224.86C175.656 226.32 174.576 227.68 172.896 228.4C171.136 227.7 170.096 226.44 169.556 224.92C168.916 226.36 167.696 227.6 166.016 228.24L165.196 227C167.456 226.2 168.796 224.28 168.796 222.54V221.58H170.376V222.54C170.376 224.14 171.176 225.82 172.856 226.8C174.576 225.72 175.436 223.94 175.436 222.54V221.58H177.036V222.54ZM196.274 220.9V210.56H197.854V220.9H196.274ZM189.194 216.96C188.014 218.78 186.194 220.2 183.734 221.26L182.874 220.04C186.574 218.58 188.594 216.3 188.914 213.2H183.654V211.88H190.594C190.594 213.24 190.354 214.5 189.874 215.64H192.714V210.94H194.254V220.62H192.714V216.96H189.194ZM195.574 222.68C195.574 224.54 196.914 226.4 199.174 227.2L198.374 228.4C196.594 227.78 195.374 226.52 194.754 225C194.214 226.46 193.134 227.86 191.454 228.56C189.694 227.86 188.694 226.58 188.154 225.06C187.494 226.5 186.274 227.76 184.574 228.4L183.754 227.2C186.014 226.4 187.374 224.42 187.374 222.68V221.52H188.954V222.68C188.954 224.3 189.754 225.98 191.434 226.96C193.134 225.9 193.974 224.06 193.974 222.68V221.52H195.574V222.68ZM215.793 228.48H214.153V210.56H215.793V228.48ZM207.513 216.02C207.513 219.06 209.673 222.16 212.313 223.28L211.393 224.6C209.313 223.64 207.553 221.58 206.693 219.12C205.893 221.72 204.073 224.04 202.073 225.04L201.113 223.72C203.693 222.48 205.873 219.12 205.873 216.02V213.74H201.713V212.38H211.733V213.74H207.513V216.02ZM222.251 227.26V225.38H224.071V227.26H222.251ZM222.451 223.52C221.991 218.52 225.451 219.2 225.451 215.86C225.451 214.5 224.631 213.32 223.211 213.32C222.191 213.32 220.951 213.94 220.791 216.18H219.251C219.471 212.62 221.751 211.78 223.411 211.78C225.671 211.78 227.071 213.56 227.071 215.74C227.071 219.68 223.451 219.22 223.951 223.52H222.451Z" fill="#404040"/>
<path d="M108.657 312.88H116.371C124.959 312.88 130.279 317.288 130.279 326.826C130.279 336.25 124.959 341 116.675 341H108.657V312.88ZM116.029 336.478C121.311 336.478 124.541 333.666 124.541 326.826C124.541 319.948 121.311 317.364 116.029 317.364H114.281V336.478H116.029ZM140.572 341.38C136.772 341.38 134.264 338.91 134.264 335.224C133.998 330.018 137.684 327.624 146.5 327.358C146.614 326.446 146.424 325.534 146.006 324.66C145.55 324.014 144.524 323.672 142.89 323.672C140.914 323.672 138.672 324.432 136.734 325.686L135.062 321.696C137.38 320.29 140.572 319.188 143.916 319.188C149.35 319.188 152.086 322.304 152.086 328.574V341H147.526L147.108 338.834H146.994C145.17 340.392 143.004 341.38 140.572 341.38ZM142.282 337.124C143.916 337.086 145.17 336.402 146.5 335.072V330.778C145.17 330.892 143.878 331.006 142.662 331.196C140.23 331.538 139.356 332.754 139.394 334.274C139.432 336.06 140.648 337.124 142.282 337.124ZM165.569 341.532C160.515 341.532 158.577 338.34 158.577 333.552V324.128H155.575V319.986L158.843 319.72L159.489 314.02H164.163V319.72H169.407V324.128H164.163V333.552C164.163 335.946 165.113 337.124 167.051 337.124C167.773 337.124 168.571 336.934 169.141 336.668L170.053 340.734C168.875 341.152 167.431 341.532 165.569 341.532ZM182.97 341.532C177.042 341.532 172.406 337.39 172.406 330.398C172.406 323.52 177.27 319.188 182.324 319.188C188.176 319.188 191.216 323.482 191.216 329.372C191.216 330.398 191.102 331.424 190.95 331.918H177.84C178.296 335.414 180.538 337.238 183.73 337.238C185.516 337.238 186.998 336.706 188.518 335.756L190.418 339.176C188.29 340.658 185.706 341.532 182.97 341.532ZM186.428 328.232C186.428 325.344 185.136 323.52 182.4 323.52C180.158 323.52 178.182 325.154 177.764 328.232H186.428ZM97.6357 352.88H105.35C113.938 352.88 119.258 357.288 119.258 366.826C119.258 376.25 113.938 381 105.654 381H97.6357V352.88ZM105.008 376.478C110.29 376.478 113.52 373.666 113.52 366.826C113.52 359.948 110.29 357.364 105.008 357.364H103.26V376.478H105.008ZM133.541 381.532C127.613 381.532 122.977 377.39 122.977 370.398C122.977 363.52 127.841 359.188 132.895 359.188C138.747 359.188 141.787 363.482 141.787 369.372C141.787 370.398 141.673 371.424 141.521 371.918H128.411C128.867 375.414 131.109 377.238 134.301 377.238C136.087 377.238 137.569 376.706 139.089 375.756L140.989 379.176C138.861 380.658 136.277 381.532 133.541 381.532ZM136.999 368.232C136.999 365.344 135.707 363.52 132.971 363.52C130.729 363.52 128.753 365.154 128.335 368.232H136.999ZM152.467 381.532C149.579 381.532 146.501 380.316 144.373 378.53L146.919 375.034C148.857 376.516 150.643 377.352 152.619 377.352C154.747 377.352 155.697 376.44 155.697 375.11C155.697 373.514 153.493 372.83 151.251 371.918C148.553 370.93 145.437 369.258 145.437 365.724C145.437 361.886 148.591 359.188 153.341 359.188C156.533 359.188 158.813 360.48 160.599 361.81L158.091 365.192C156.571 364.128 155.127 363.368 153.493 363.368C151.555 363.368 150.681 364.204 150.681 365.42C150.681 366.94 152.771 367.586 155.013 368.384C157.825 369.486 160.941 370.816 160.941 374.806C160.941 378.53 158.015 381.532 152.467 381.532ZM172.991 381.532C167.937 381.532 165.999 378.34 165.999 373.552V364.128H162.997V359.986L166.265 359.72L166.911 354.02H171.585V359.72H176.829V364.128H171.585V373.552C171.585 375.946 172.535 377.124 174.473 377.124C175.195 377.124 175.993 376.934 176.563 376.668L177.475 380.734C176.297 381.152 174.853 381.532 172.991 381.532ZM186.212 356.3H180.664V350.904H186.212V356.3ZM180.626 381V359.72H186.174V381H180.626ZM191.66 359.72H196.22L196.6 362.532H196.752C198.614 360.708 200.78 359.188 203.668 359.188C208.266 359.188 210.242 362.38 210.242 367.738V381H204.656V368.422C204.656 365.116 203.782 363.976 201.654 363.976C199.868 363.976 198.842 364.812 197.208 366.37V381H191.66V359.72ZM224.288 389.55H218.778L221.742 381.114L213.496 359.72H219.12L222.502 369.6C223.148 371.538 223.68 373.476 224.288 375.604H224.478C224.972 373.628 225.504 371.576 225.998 369.6L228.924 359.72H234.282L226.91 381.608L224.288 389.55Z" fill="#8071FC"/>
<path d="M210.544 328.764H202.868V324.812H210.544V316.718H214.686V324.812H222.362V328.764H214.686V336.858H210.544V328.764Z" fill="#00D282"/>
<path d="M126.765 425.854H124.173V434.332H122.697V418.186H124.173V424.63H126.765V425.854ZM113.859 429.004C116.181 429.004 118.575 428.806 121.185 428.284L121.365 429.508C118.611 430.066 116.145 430.246 113.679 430.246H112.401V419.752H113.859V429.004ZM143.287 426.088H140.731V434.332H139.255V418.168H140.731V424.846H143.287V426.088ZM133.873 429.508C135.385 429.436 136.843 429.346 138.229 429.148L138.355 430.228C134.935 430.804 131.173 430.858 128.329 430.858L128.131 429.616C129.427 429.616 130.885 429.616 132.397 429.562V426.772C130.309 426.538 128.851 425.044 128.851 423.028C128.851 420.778 130.615 419.23 133.135 419.23C135.583 419.23 137.401 420.778 137.401 423.028C137.401 425.044 135.943 426.484 133.873 426.772V429.508ZM130.291 423.028C130.291 424.558 131.461 425.566 133.135 425.566C134.791 425.566 135.961 424.558 135.961 423.028C135.961 421.516 134.791 420.472 133.135 420.472C131.461 420.472 130.291 421.516 130.291 423.028ZM162.197 418.186V434.368H160.721V425.548H157.211C157.067 428.716 155.465 430.696 153.215 430.696C150.857 430.696 149.183 428.5 149.183 425.062C149.183 421.624 150.857 419.428 153.215 419.428C155.393 419.428 156.977 421.318 157.211 424.342H160.721V418.186H162.197ZM153.215 429.382C154.745 429.382 155.825 427.69 155.825 425.062C155.825 422.452 154.745 420.76 153.215 420.76C151.667 420.76 150.587 422.452 150.587 425.062C150.587 427.69 151.667 429.382 153.215 429.382ZM172.744 423.964C169.198 423.964 167.074 422.992 167.074 421.174C167.074 419.356 169.198 418.366 172.744 418.366C176.362 418.366 178.414 419.356 178.414 421.174C178.414 422.992 176.362 423.964 172.744 423.964ZM172.744 419.482C170.062 419.482 168.586 420.094 168.586 421.174C168.586 422.254 170.062 422.866 172.744 422.866C175.426 422.866 176.902 422.254 176.902 421.174C176.902 420.094 175.426 419.482 172.744 419.482ZM173.482 426.214V427.726H178.18V431.362H168.694V433H178.666V434.152H167.254V430.282H176.722V428.842H167.218V427.726H172.006V426.214H165.454V425.026H180.034V426.214H173.482ZM195.261 418.168V434.35H193.785V418.168H195.261ZM184.425 429.22C187.071 429.22 189.465 429.076 192.273 428.644L192.417 429.85C189.483 430.336 187.071 430.444 184.281 430.444H182.949V424.252H188.889V420.886H182.895V419.68H190.383V425.458H184.425V429.22ZM211.513 424.252H200.533V418.78H202.009V423.046H211.513V424.252ZM213.187 426.412V427.6H198.553V426.412H213.187ZM201.901 432.73H211.603V433.936H200.425V429.22H201.901V432.73ZM114.312 450.962H111.648V459.332H110.172V443.204H111.648V449.738H114.312V450.962ZM104.646 447.488C104.646 450.314 106.5 453.248 108.75 454.4L107.832 455.57C106.104 454.652 104.646 452.78 103.926 450.548C103.224 452.942 101.73 454.886 99.9124 455.894L99.0304 454.706C101.352 453.5 103.188 450.422 103.188 447.488V444.59H104.646V447.488ZM130.709 448.55H128.315V452.816H126.839V443.204H128.315V447.326H130.709V448.55ZM125.435 451.448C122.897 451.88 120.755 451.97 117.767 451.97H116.489V447.344H122.267V445.274H116.453V444.068H123.725V448.478H117.947V450.764C120.773 450.764 122.843 450.674 125.291 450.242L125.435 451.448ZM118.145 453.608H128.315V459.116H118.145V453.608ZM119.585 457.928H126.875V454.778H119.585V457.928ZM139.636 449.054C136.09 449.054 133.966 448.082 133.966 446.264C133.966 444.446 136.09 443.456 139.636 443.456C143.182 443.456 145.306 444.446 145.306 446.264C145.306 448.082 143.182 449.054 139.636 449.054ZM139.636 444.572C136.954 444.572 135.478 445.184 135.478 446.264C135.478 447.344 136.954 447.956 139.636 447.956C142.318 447.956 143.794 447.344 143.794 446.264C143.794 445.184 142.318 444.572 139.636 444.572ZM146.944 450.152V451.34H132.328V450.152H146.944ZM135.586 458H145.558V459.152H134.146V455.282H143.614V453.842H134.092V452.726H145.072V456.362H135.586V458ZM161.678 452.06C159.806 451.502 158.438 450.332 157.718 448.82C157.016 450.494 155.54 451.754 153.65 452.384L152.93 451.214C155.306 450.494 156.962 448.64 156.962 446.534V446.264H153.38V445.076H156.962V443.114H158.438V445.076H162.002V446.264H158.438V446.534C158.438 448.46 160.004 450.242 162.38 450.926L161.678 452.06ZM167.852 447.182V448.406H165.458V452.564H163.982V443.204H165.458V447.182H167.852ZM161.21 454.616C161.498 456.29 163.748 457.712 166.358 458.144L165.8 459.278C163.442 458.9 161.354 457.712 160.436 456.11C159.518 457.73 157.466 458.882 155.072 459.26L154.55 458.126C157.16 457.748 159.428 456.308 159.662 454.616H155.162V453.446H165.728V454.616H161.21ZM182.43 449.252H171.45V443.78H172.926V448.046H182.43V449.252ZM184.104 451.412V452.6H169.47V451.412H184.104ZM172.818 457.73H182.52V458.936H171.342V454.22H172.818V457.73ZM204.994 447.254V448.478H202.6V452.906H201.124V443.186H202.6V447.254H204.994ZM198.208 451.646H190.738V444.212H192.196V446.642H196.768V444.212H198.208V451.646ZM196.768 447.794H192.196V450.458H196.768V447.794ZM197.47 453.32C200.728 453.32 202.78 454.4 202.78 456.326C202.78 458.252 200.728 459.332 197.47 459.332C194.176 459.332 192.142 458.252 192.142 456.326C192.142 454.4 194.176 453.32 197.47 453.32ZM197.47 458.162C199.864 458.162 201.304 457.478 201.304 456.326C201.304 455.174 199.864 454.508 197.47 454.508C195.004 454.508 193.618 455.174 193.618 456.326C193.618 457.478 195.004 458.162 197.47 458.162ZM219.933 443.204V452.024H218.439V448.37H214.713V451.412H207.441V444.032H208.899V446.498H213.255V444.032H214.713V447.164H218.439V443.204H219.933ZM213.255 447.65H208.899V450.206H213.255V447.65ZM218.457 452.798H219.915V459.098H209.583V452.798H211.041V454.742H218.457V452.798ZM218.457 455.894H211.041V457.91H218.457V455.894ZM227.293 458.234H225.655V456.542H227.293V458.234ZM225.835 454.868C225.421 450.368 228.535 450.98 228.535 447.974C228.535 446.75 227.797 445.688 226.519 445.688C225.601 445.688 224.485 446.246 224.341 448.262H222.955C223.153 445.058 225.205 444.302 226.699 444.302C228.733 444.302 229.993 445.904 229.993 447.866C229.993 451.412 226.735 450.998 227.185 454.868H225.835Z" fill="#4A1D1D"/>
<defs>
<filter id="filter0_bi_265_248" x="-50" y="-30" width="244" height="217.176" filterUnits="userSpaceOnUse" color-interpolation-filters="sRGB">
<feFlood flood-opacity="0" result="BackgroundImageFix"/>
<feGaussianBlur in="BackgroundImageFix" stdDeviation="25"/>
<feComposite in2="SourceAlpha" operator="in" result="effect1_backgroundBlur_265_248"/>
<feBlend mode="normal" in="SourceGraphic" in2="effect1_backgroundBlur_265_248" result="shape"/>
<feColorMatrix in="SourceAlpha" type="matrix" values="0 0 0 0 0 0 0 0 0 0 0 0 0 0 0 0 0 0 127 0" result="hardAlpha"/>
<feOffset dy="2"/>
<feGaussianBlur stdDeviation="1"/>
<feComposite in2="hardAlpha" operator="arithmetic" k2="-1" k3="1"/>
<feColorMatrix type="matrix" values="0 0 0 0 1 0 0 0 0 1 0 0 0 0 1 0 0 0 0.15 0"/>
<feBlend mode="normal" in2="shape" result="effect2_innerShadow_265_248"/>
</filter>
<filter id="filter1_bdi_265_248" x="114" y="-50" width="264" height="229.468" filterUnits="userSpaceOnUse" color-interpolation-filters="sRGB">
<feFlood flood-opacity="0" result="BackgroundImageFix"/>
<feGaussianBlur in="BackgroundImageFix" stdDeviation="25"/>
<feComposite in2="SourceAlpha" operator="in" result="effect1_backgroundBlur_265_248"/>
<feColorMatrix in="SourceAlpha" type="matrix" values="0 0 0 0 0 0 0 0 0 0 0 0 0 0 0 0 0 0 127 0" result="hardAlpha"/>
<feOffset dy="4"/>
<feGaussianBlur stdDeviation="2"/>
<feComposite in2="hardAlpha" operator="out"/>
<feColorMatrix type="matrix" values="0 0 0 0 0 0 0 0 0 0 0 0 0 0 0 0 0 0 0.05 0"/>
<feBlend mode="normal" in2="effect1_backgroundBlur_265_248" result="effect2_dropShadow_265_248"/>
<feBlend mode="normal" in="SourceGraphic" in2="effect2_dropShadow_265_248" result="shape"/>
<feColorMatrix in="SourceAlpha" type="matrix" values="0 0 0 0 0 0 0 0 0 0 0 0 0 0 0 0 0 0 127 0" result="hardAlpha"/>
<feOffset dy="2"/>
<feGaussianBlur stdDeviation="1"/>
<feComposite in2="hardAlpha" operator="arithmetic" k2="-1" k3="1"/>
<feColorMatrix type="matrix" values="0 0 0 0 1 0 0 0 0 1 0 0 0 0 1 0 0 0 0.15 0"/>
<feBlend mode="normal" in2="shape" result="effect3_innerShadow_265_248"/>
</filter>
<filter id="filter2_bdi_265_248" x="26" y="90" width="276" height="240.004" filterUnits="userSpaceOnUse" color-interpolation-filters="sRGB">
<feFlood flood-opacity="0" result="BackgroundImageFix"/>
<feGaussianBlur in="BackgroundImageFix" stdDeviation="25"/>
<feComposite in2="SourceAlpha" operator="in" result="effect1_backgroundBlur_265_248"/>
<feColorMatrix in="SourceAlpha" type="matrix" values="0 0 0 0 0 0 0 0 0 0 0 0 0 0 0 0 0 0 127 0" result="hardAlpha"/>
<feOffset dy="4"/>
<feGaussianBlur stdDeviation="2"/>
<feComposite in2="hardAlpha" operator="out"/>
<feColorMatrix type="matrix" values="0 0 0 0 0 0 0 0 0 0 0 0 0 0 0 0 0 0 0.05 0"/>
<feBlend mode="normal" in2="effect1_backgroundBlur_265_248" result="effect2_dropShadow_265_248"/>
<feBlend mode="normal" in="SourceGraphic" in2="effect2_dropShadow_265_248" result="shape"/>
<feColorMatrix in="SourceAlpha" type="matrix" values="0 0 0 0 0 0 0 0 0 0 0 0 0 0 0 0 0 0 127 0" result="hardAlpha"/>
<feOffset dy="2"/>
<feGaussianBlur stdDeviation="1"/>
<feComposite in2="hardAlpha" operator="arithmetic" k2="-1" k3="1"/>
<feColorMatrix type="matrix" values="0 0 0 0 1 0 0 0 0 1 0 0 0 0 1 0 0 0 0.15 0"/>
<feBlend mode="normal" in2="shape" result="effect3_innerShadow_265_248"/>
</filter>
<linearGradient id="paint0_linear_265_248" x1="138" y1="44.8" x2="-17.9432" y2="69.9521" gradientUnits="userSpaceOnUse">
<stop stop-color="#EBD7FF"/>
<stop offset="1" stop-color="#EBEBEB"/>
</linearGradient>
<linearGradient id="paint1_linear_265_248" x1="135.101" y1="23.4024" x2="8.51219" y2="149.52" gradientUnits="userSpaceOnUse">
<stop stop-color="white"/>
<stop offset="1" stop-color="#F8F8F8"/>
</linearGradient>
<linearGradient id="paint2_linear_265_248" x1="170.833" y1="27.2" x2="348.084" y2="56.8865" gradientUnits="userSpaceOnUse">
<stop stop-color="#EBD7FF"/>
<stop offset="1" stop-color="#EBEBEB"/>
</linearGradient>
<linearGradient id="paint3_linear_265_248" x1="169.125" y1="6.18182" x2="314.248" y2="139.001" gradientUnits="userSpaceOnUse">
<stop stop-color="white"/>
<stop offset="1" stop-color="#E9E9E9"/>
</linearGradient>
<linearGradient id="paint4_linear_265_248" x1="83.3333" y1="166.87" x2="272.623" y2="201.31" gradientUnits="userSpaceOnUse">
<stop stop-color="#EBD7FF"/>
<stop offset="1" stop-color="#EBEBEB"/>
</linearGradient>
<linearGradient id="paint5_linear_265_248" x1="81.5" y1="146.107" x2="225.423" y2="289.202" gradientUnits="userSpaceOnUse">
<stop stop-color="white"/>
<stop offset="1" stop-color="#E9E9E9"/>
</linearGradient>
</defs>
</svg>
